<?xml version="1.0" encoding="utf-8"?>
<!-- Generator: Adobe Illustrator 24.2.3, SVG Export Plug-In . SVG Version: 6.00 Build 0)  -->
<svg version="1.1" id="Layer_1" xmlns="http://www.w3.org/2000/svg" xmlns:xlink="http://www.w3.org/1999/xlink" x="0px" y="0px"
	 viewBox="0 0 512 512" style="enable-background:new 0 0 512 512;" xml:space="preserve">
<style type="text/css">
	.st0{fill:#FCBD12;}
	.st1{fill:#E8F5F9;}
	.st2{clip-path:url(#XMLID_6_);}
	.st3{fill:#A4DAEC;}
	.st4{opacity:0.35;fill:#A4DAEC;}
	.st5{opacity:0.35;clip-path:url(#XMLID_7_);fill:#A4DAEC;}
	.st6{opacity:0.42;fill:#A4DAEC;}
	.st7{opacity:0.32;clip-path:url(#XMLID_8_);fill:#FFC49A;}
	.st8{opacity:0.14;clip-path:url(#XMLID_8_);fill:#FFC49A;}
	.st9{fill:#FFD9C0;}
	.st10{clip-path:url(#XMLID_9_);fill:#FFD9C0;}
	.st11{opacity:0.45;clip-path:url(#XMLID_9_);}
	.st12{fill:#FFC49A;}
	.st13{opacity:0.45;clip-path:url(#XMLID_9_);fill:#FFC49A;}
	.st14{opacity:0.14;clip-path:url(#XMLID_9_);fill:#FFC49A;}
</style>
<circle class="st0" cx="256" cy="256" r="256"/>
<ellipse transform="matrix(0.7071 -0.7071 0.7071 0.7071 -104.6601 254.8633)" class="st1" cx="255.3" cy="253.8" rx="143.8" ry="143.8"/>
<g>
	<g>
		<defs>
			<path id="XMLID_1_" d="M314.2,258.7l26.8-0.3c20.2-0.2,36.7,16,36.9,36.1l1.2,114c0.1,6.6-22.2,12.2-49.8,12.5
				c-27.6,0.3-50-4.8-50-11.5l-1.2-114C277.8,275.5,294,258.9,314.2,258.7z"/>
		</defs>
		<use xlink:href="#XMLID_1_"  style="overflow:visible;fill:#A4DAEC;"/>
		<clipPath id="XMLID_6_">
			<use xlink:href="#XMLID_1_"  style="overflow:visible;"/>
		</clipPath>
		<g class="st2">
			<path class="st3" d="M274,320.2c0,0.1,0,0.2,0,0.2L274,320.2L274,320.2z"/>
			<path class="st3" d="M382.5,319l0,0.2C382.5,319.2,382.5,319.1,382.5,319L382.5,319z"/>
			<path class="st3" d="M328.4,333.8c30-0.3,54.2-6.8,54.1-14.6l0.4,40.7c0.1,7.7-24.1,14.2-54.1,14.6c-30,0.3-54.3-5.7-54.4-13.4
				l-0.4-40.7C274.1,328.1,298.4,334.1,328.4,333.8z"/>
		</g>
	</g>
	<path class="st4" d="M300.6,261.3c-6.3,6.6-10,15.6-9.9,25.4l1.2,114c0.1,6.6,22.5,11.8,50,11.5c14.6-0.2,27.7-1.8,36.8-4.3l0,0.6
		c0.1,6.6-22.2,12.2-49.8,12.5c-27.6,0.3-50-4.8-50-11.5l-1.2-114C277.5,280.1,287,266.8,300.6,261.3z"/>
	<path class="st3" d="M316.4,239.4c-3.3,2.9-5.4,7.1-5.3,11.9l0.1,9.1c0,2.8,9.6,5,21.3,4.9c6.4-0.1,12.2-0.8,16.1-1.9
		c-0.9,2.6-10,4.8-21.1,4.9c-11.7,0.1-21.3-2.1-21.3-4.9l-0.1-9.1C305.9,247.4,310.2,241.5,316.4,239.4z"/>
	<path class="st3" d="M311.1,260.3l-0.1-9.1c0-4.7,2-9,5.3-11.9c1.6-0.6,3.3-0.9,5-0.9l11.4-0.1c8.6-0.1,15.6,6.8,15.7,15.4l0.1,9.1
		c0,0.1,0,0.3-0.1,0.4c-3.9,1.1-9.6,1.9-16.1,1.9C320.7,265.3,311.2,263.1,311.1,260.3z"/>
	<g>
		<defs>
			<path id="XMLID_2_" d="M325.7,216.9l2.6,0c2,0,3.6,1.6,3.6,3.6l0.2,18.9c0,0.7-2.2,1.2-4.9,1.2c-2.7,0-4.9-0.5-4.9-1.1l-0.2-18.9
				C322.1,218.6,323.7,217,325.7,216.9z"/>
		</defs>
		<use xlink:href="#XMLID_2_"  style="overflow:visible;fill:#A4DAEC;"/>
		<clipPath id="XMLID_7_">
			<use xlink:href="#XMLID_2_"  style="overflow:visible;"/>
		</clipPath>
		
			<ellipse transform="matrix(0.9999 -1.049298e-02 1.049298e-02 0.9999 -2.2973 3.3863)" class="st5" cx="321.6" cy="220.6" rx="15.8" ry="8"/>
	</g>
	<path class="st3" d="M291.2,223.5c0,0,7.5-1.2,7.6-1.2c0.2,0,31.3,3.4,34.9,0.8c3.6-2.7,7.2-10.6-3.8-12.6
		c-11.1-2-39.9,6.2-42.5,8.9C284.9,222,287.5,225.2,291.2,223.5z"/>
	<path class="st6" d="M343.2,284.1c0.1,5.8,4.8,10.5,10.7,10.4c5.8-0.1,10.5-4.8,10.4-10.7c-0.1-5.8-4.8-10.5-10.7-10.4
		C347.8,273.5,343.1,278.3,343.2,284.1z"/>
	<path class="st6" d="M357.7,388.8L357.7,388.8c3.4,0,6.2-2.8,6.1-6.3l-0.7-69.2c0-3.4-2.8-6.2-6.3-6.1l0,0c-3.4,0-6.2,2.8-6.1,6.3
		l0.7,69.2C351.5,386.1,354.3,388.9,357.7,388.8z"/>
</g>
<g>
	<g>
		<defs>
			<path id="XMLID_3_" d="M160.9,120.1l-22.8-29.3c0,0-31.4,9.3-33.1,40.4l29.7,21.3c0,0,16.1,19.8,36.5,20.3
				c20.4,0.5,32.1,25.5,32.1,25.5s-14.2-5.8-16.9-2.4c-2.7,3.3,2.9,12.5,19.8,15c0,0,5.6,5.1,12.2,0.5c0,0,9.2,6.7,19.5-2.7
				c10.3-9.4,15.1-18,11.7-24.8c-3.3-6.8-11.6-23.2-11.6-23.2s54.6,30.7,67.7,17.4c0,0-73.3-41.3-78.7-42.8
				C220.6,133.5,160.9,120.1,160.9,120.1z"/>
		</defs>
		<use xlink:href="#XMLID_3_"  style="overflow:visible;fill:#FFC49A;"/>
		<clipPath id="XMLID_8_">
			<use xlink:href="#XMLID_3_"  style="overflow:visible;"/>
		</clipPath>
		<path class="st7" d="M214.6,215.9l3.7-4.4c0,0,19.8-19.5,19.4-21.6c-0.4-2.1-7.5-22.3-7.5-22.3s12.1,23.6,9.8,26.4
			c-2.3,2.8-24.7,19.2-10.9,21.1C242.9,217,214.6,215.9,214.6,215.9z"/>
		<path class="st7" d="M201.4,213.7l4.7-2.6c0,0,5.3-2.9,14.8-14.1c0,0,5.8-4.8,5.3-8.4c-0.5-3.6-4.7-18.1-4.7-18.1s7.9,19,6.2,21.5
			c-1.7,2.5-20.9,23.2-14.1,23.6C220.5,216.1,201.4,213.7,201.4,213.7z"/>
		<path class="st7" d="M200.5,196.1c-0.7,0.8,7.6,4.6,7.6,4.6s-7.5-3.1-3.6-6.4c0,0-3.7-1-9.1-11.5s-21.1-14.4-31.8-14.9
			c-10.7-0.6-23.9-20.1-23.9-20.1s-41.5-26-27.7-44.8c13.7-18.8-22.7,5.4-22.7,5.4l2.1,29.2l38.8,30.2l43.7,18.3L200.5,196.1z"/>
		<path class="st7" d="M243,166.2l-4.9-5.3l-2.2-6.1c0,0,55.6,33.5,66.5,28.2c10.9-5.3-32,6.7-32,6.7l-13.4-8.2l-13.1-14.6"/>
		<path class="st8" d="M252.8,187.3c0,0-3.9,9.2-13.1,2.2c0,0-8.7,6.4-11.9-0.4c0,0-15.6,0.5-22.2-12.7
			c-6.6-13.2-35.1-22.3-49.6-26.9c-14.5-4.6-46.8-43.8-5-60.6c41.7-16.8-40.4-26.2-40.4-26.2L84.2,105L98,152.3l38.2,42.9l68.2,32.6
			l39.4-8.6l14.4-14.2L252.8,187.3z"/>
	</g>
	<path class="st9" d="M293.8,171.1c0,0-0.2,5.8,11.8,8.2C305.6,179.2,309.9,178.3,293.8,171.1z"/>
</g>
<g>
	<g>
		<defs>
			<path id="XMLID_4_" d="M149.8,346.8c0,0,18.7-32.2,25.6-33.5c6.9-1.4,40.1-0.7,51.9,0c11.8,0.7,22.5,5.2,37-11.1
				c0,0,12.4-4.1,29-27.7c0,0,18-7.6,17.6-14.5c0,0-1-5.4-7.6-4.3c0,0,1.2-1.9,0-3.3c-1.2-1.4-11.8-2.2-15.6,6.7c0,0-4.4,1.6-8,9.1
				c0,0-21.1,4.1-24.5,3.8c-3.5-0.3-33.2-5.2-34.7-6.2c-1.6-1,29.2-2.2,33.7-19.2c4.5-16.9-24.5,1.4-34.6,2.2
				c-10,0.9-34.6-0.5-45.6,10.9c-11.1,11.4-21.4,30.4-21.4,30.4L120,316.8C120,316.8,120.7,341.3,149.8,346.8z"/>
		</defs>
		<use xlink:href="#XMLID_4_"  style="overflow:visible;fill:#FFC49A;"/>
		<clipPath id="XMLID_9_">
			<use xlink:href="#XMLID_4_"  style="overflow:visible;"/>
		</clipPath>
		<path class="st10" d="M305.4,267.8c0,0,7.1-4.4,6.6-8c-0.5-3.7-6.1,2.3-7.1,8"/>
		<g class="st11">
			<path class="st12" d="M262.9,306.9c0,0.1,0.1,0.1,0.1,0.2l0,0.1c0,0,0,0,0,0.1c0,0,0,0,0,0.1l0,0c0,0,0,0,0,0.1
				c0,0.1,0,0.1,0,0.1c0,0,0,0,0,0c0-0.1,0-0.1,0.1-0.2c0.1-0.2,0.2-0.4,0.2-0.6c0.2-0.4,0.4-0.9,0.6-1.3c0.2-0.4,0.5-0.9,0.7-1.3
				c0.2-0.4,0.5-0.9,0.7-1.3l-0.2,0.3c0.1-0.1,0.2-0.2,0.3-0.3c0.1-0.1,0.2-0.2,0.3-0.3c0.2-0.2,0.4-0.4,0.6-0.6
				c0.4-0.4,0.7-0.9,1-1.3c0.6-0.9,1.2-1.9,1.7-2.9c0.5-1,0.8-2.1,1-3.3c0.2-1.1,0.3-2.1,0.4-3.2c0.2-2.1,0.4-4.2,0.6-6.3
				c0.1-1.1,0.1-2.1,0.1-3.2c0-0.5,0-1.1,0-1.6c0-0.5,0-1.1-0.1-1.7c0-0.3-0.1-0.6-0.2-0.9l0-0.1c0,0,0-0.1,0-0.1
				c0-0.1-0.1-0.1-0.1-0.2c0,0,0,0,0-0.1l0-0.1c0,0-0.1-0.1-0.1-0.1c-0.1-0.1-0.2-0.2-0.3-0.3c-0.5-0.4-0.9-0.7-1.5-1
				c-0.5-0.3-1.1-0.4-1.7-0.5c-0.6-0.1-1.2,0-1.8,0.1c-0.6,0.2-1.1,0.4-1.6,0.8c-0.5,0.3-0.9,0.7-1.3,1.1c-0.4,0.4-0.7,0.9-1,1.3
				l-0.4,0.7l-0.2,0.3l-0.2,0.4c-1,1.9-1.9,3.8-2.7,5.8c-0.4,1-0.7,2-1.1,3c-0.3,1-0.7,2-0.9,3l0.2-0.2c-1.5,0.8-3.1,1.7-4.6,2.6
				c-0.8,0.4-1.5,0.9-2.3,1.4c-0.2,0.1-0.4,0.2-0.6,0.4c-0.2,0.1-0.4,0.3-0.5,0.4c-0.1,0.1-0.3,0.2-0.5,0.2c-0.2,0-0.4,0.1-0.6,0
				c-0.4,0-0.8-0.1-1.3-0.2c-0.4-0.1-0.8-0.2-1.3-0.3c-0.8-0.2-1.7-0.5-2.6-0.6c-0.9-0.2-1.7-0.3-2.6-0.3c-0.4,0-0.9,0-1.3,0.1
				c-0.4,0.1-0.9,0.2-1.3,0.3c0.4-0.1,0.8-0.2,1.3-0.3c0.4-0.1,0.9-0.1,1.3,0c0.9,0,1.7,0.2,2.6,0.4c0.8,0.2,1.7,0.5,2.5,0.7
				c0.4,0.1,0.8,0.2,1.3,0.3c0.4,0.1,0.9,0.2,1.3,0.2c0.2,0,0.5,0,0.7,0c0.2,0,0.5-0.1,0.7-0.3c0.2-0.1,0.4-0.2,0.5-0.4
				c0.2-0.1,0.4-0.2,0.6-0.3c0.7-0.4,1.5-0.9,2.3-1.3c1.5-0.8,3.1-1.6,4.7-2.4l0.1-0.1l0-0.2c0.3-1,0.7-2,1-3c0.4-1,0.8-1.9,1.2-2.9
				c0.4-1,0.9-1.9,1.3-2.8c0.2-0.5,0.5-0.9,0.7-1.4l0.4-0.7l0.4-0.7l0.2-0.3l0.2-0.3l0.4-0.6c0.3-0.4,0.6-0.8,0.9-1.2
				c0.7-0.7,1.5-1.2,2.3-1.5c0.4-0.1,0.9-0.1,1.3-0.1c0.4,0.1,0.9,0.2,1.3,0.4c0.4,0.2,0.8,0.5,1.1,0.8c0.1,0.1,0.1,0.2,0.2,0.2
				c0,0,0,0,0,0.1l0,0c0,0,0,0,0,0c0,0,0,0,0,0c0,0,0,0,0,0l0,0l0,0l0,0l0,0l0,0.1c0,0.1,0,0.2,0,0.3c0,0.5,0,1,0,1.5
				c0,0.5,0,1-0.1,1.5c-0.1,1-0.1,2.1-0.2,3.1c-0.2,2.1-0.5,4.1-0.8,6.2c-0.2,1-0.3,2.1-0.5,3.1c-0.2,0.9-0.5,1.8-1,2.7
				c-0.4,0.9-1,1.7-1.5,2.5c-0.3,0.4-0.6,0.8-0.9,1.1c-0.2,0.2-0.3,0.4-0.5,0.5c-0.1,0.1-0.2,0.2-0.3,0.3c-0.1,0.1-0.2,0.2-0.2,0.2
				l-0.1,0.1l-0.1,0.2c-0.3,0.5-0.5,0.9-0.8,1.4c-0.3,0.5-0.5,0.9-0.8,1.4c-0.3,0.5-0.5,0.9-0.7,1.4c-0.1,0.3-0.2,0.5-0.3,0.8
				c-0.1,0.1-0.1,0.3-0.2,0.5c0,0.1-0.1,0.2-0.1,0.4c0,0.1,0,0.2,0,0.3c0,0,0,0.1,0,0.1l0,0l0,0l0,0.1l0,0.1l0,0l0,0.1
				c0,0.1,0.1,0.2,0.1,0.2L262.9,306.9z"/>
		</g>
		<path class="st13" d="M289.6,281.7l3.8-7.3c0,0,7.3-10,10.4-18.8c3.1-8.8,3.6-5.7,3.6-5.7S309.3,261.3,289.6,281.7z"/>
		<path class="st13" d="M282.9,261c0,0,6.1-4.3,13.5-1.2c0,0-3.6,17.8-11.6,28c0,0,12.4-16.9,13.1-29.2
			C297.9,258.5,290,253,282.9,261z"/>
		<polygon class="st13" points="280.5,266.8 270.4,284.7 277.2,262.2 		"/>
		<g class="st11">
			<path class="st12" d="M211.3,286.9c-1.2-1.4-2.5-2.7-3.9-3.9c-1.4-1.2-2.9-2.3-4.4-3.3c-1.5-1-3.2-1.9-4.8-2.7
				c-0.8-0.4-1.7-0.8-2.6-1.1c-0.9-0.3-1.7-0.6-2.6-0.9c-3.6-1.1-7.4-1.6-11.1-1.2c-1.9,0.2-3.7,0.6-5.5,1.2
				c-0.4,0.1-0.9,0.3-1.3,0.5l-0.6,0.3c-0.1,0-0.2,0.1-0.3,0.1l-0.3,0.2c-0.8,0.4-1.6,0.9-2.4,1.4c3.4-1.4,6.9-2.3,10.5-2.4
				c3.6-0.1,7.1,0.4,10.6,1.5c1.7,0.5,3.4,1.2,5,1.9c0.8,0.4,1.6,0.8,2.4,1.2c0.8,0.4,1.6,0.8,2.4,1.3c1.6,0.9,3.1,1.8,4.6,2.9
				C208.4,284.7,209.9,285.7,211.3,286.9z"/>
		</g>
		<path class="st14" d="M311,277.5l-46.7,30.6c0,0-10,6.2-38,0s-55.1-0.9-64.3-12.1c0,0-0.7,9.7,6.4,13.5c0,0-11.6,24.4-22,24.9
			c-10.4,0.5-28-16.6-26.4-26.4c1.6-9.9-15,11.1-15,11.1l44.5-26.2c0,0,21.8-16.9,25.7-26.9c4-10,18.8-21.4,19.5-21.6
			c0.7-0.2-52.4,7.3-52.4,7.3l-35.4,30.6l-16.6,42.4l25.4,34.2l68.1,2.8l51-15.7l29-10.2l68.5-77.6l-18.3-15.4l-32.2,3.1L255,259.1
			L223,265c0,0-4.4,1.2-7.5-1c0,0,43.2-13.7,42-28.2c-1.2-14.5,33.7,3.6,33.7,3.6l33-3.1l23,13.5l5,39.4l-42.9,57.6l-53.6,22.8
			h-47.2l-40.5,4.8l-30.6-1.7l123.6-49.1L311,277.5z"/>
	</g>
	<path class="st9" d="M269.8,286.3c0,0,3.1-8.8,1.4-10.9C269.5,273.3,267.7,283,269.8,286.3z"/>
	<path class="st9" d="M293.7,268.8c0,0,4.5-5.7,3.5-9.2C296.1,256.2,293.7,268.8,293.7,268.8z"/>
	<path class="st9" d="M300.7,262.9c0,0,4.3-6.7,3.6-9.4C303.6,250.7,301.5,259.3,300.7,262.9z"/>
</g>
</svg>
