<?xml version="1.0" encoding="utf-8"?>
<!-- Generator: Adobe Illustrator 24.2.3, SVG Export Plug-In . SVG Version: 6.00 Build 0)  -->
<svg version="1.1" id="Layer_1" xmlns="http://www.w3.org/2000/svg" xmlns:xlink="http://www.w3.org/1999/xlink" x="0px" y="0px"
	 viewBox="0 0 512 512" style="enable-background:new 0 0 512 512;" xml:space="preserve">
<style type="text/css">
	.st0{fill:#FCBD12;}
	.st1{fill:#D3E3EA;}
	.st2{fill:#E8F5F9;}
	.st3{fill:#AFB2BF;}
	.st4{opacity:0.6;}
	.st5{fill:#CEE8EF;}
	.st6{opacity:6.000000e-02;fill:#0E0F0F;}
</style>
<circle class="st0" cx="256" cy="256" r="256"/>
<g>
	<g>
		<g>
			<path class="st1" d="M124.5,194c-20.6-5.4-57-7.9-63.5,18.7c-6.9,28.2,31.9,44.1,52.9,49.9c0.1,0,0.3,0.1,0.4,0.1
				c3.2,0.8,4.5-4,1.3-4.9c-8.6-2.3-17.1-5.7-25-9.7c-11.8-6.1-26.1-16-25.4-30.9c1.3-26.6,40.2-22.9,57.8-18.3
				C126.3,199.7,127.6,194.9,124.5,194L124.5,194z"/>
		</g>
		<g>
			<path class="st1" d="M393.8,194c20.6-5.4,57-7.9,63.5,18.7c6.9,28.2-31.9,44.1-53,49.9c-0.1,0-0.3,0.1-0.4,0.1
				c-3.2,0.8-4.5-4-1.3-4.9c8.6-2.3,17.1-5.7,25-9.7c11.8-6.1,26.1-16,25.4-30.9c-1.3-26.6-40.2-22.9-57.8-18.3
				C392,199.7,390.6,194.9,393.8,194L393.8,194z"/>
		</g>
		<path class="st2" d="M401.1,194.4c-24.2-2.2-38.1-19-69.5-48.3c-31.5-29.3-72.4-25.6-72.5-25.6c0,0-41-3.7-72.5,25.6
			c-31.5,29.3-45.4,46.1-69.5,48.3c0,0-8.8,38.8-8.8,65.9c0,0,13.9,19.8,22.7,36.6c8.8,16.8,43.2,93,128.1,93l0,0l0,0c0,0,0,0,0,0
			l0,0c84.9,0,119.3-76.1,128.1-93c8.8-16.8,22.7-36.6,22.7-36.6C409.9,233.2,401.1,194.4,401.1,194.4z"/>
		<path class="st3" d="M340,175.6c-12.2-6.6-22.3-16-33.9-23.5c-13.6-8.7-28.8-15-45-15.9c-0.3-0.1-0.5-0.1-0.8-0.1
			c-0.4,0-0.7,0-1.1,0c-0.4,0-0.7,0-1.1,0c-0.3,0-0.6,0-0.8,0.1c-16.2,0.9-31.4,7.2-45,15.9c-11.6,7.4-21.7,16.9-33.9,23.5
			c-3.4,1.9-0.4,7.1,3.1,5.2c11.1-6,20.5-14.2,30.8-21.4c13.9-9.6,29.9-16.7,47-17.2c17.1,0.5,33.1,7.6,47,17.2
			c10.3,7.1,19.7,15.4,30.8,21.4C340.4,182.7,343.4,177.4,340,175.6z"/>
		<g class="st4">
			<g>
				<path class="st5" d="M203.5,200.1c33.8,18.6,77.5,17,111.3,0c8.7-4.4,1.1-17.4-7.6-13.1c-20.9,10.5-44.5,13.6-67.5,9.4
					c-7.3-1.4-14.5-3.4-21.4-6.1c-0.5-0.2-1-0.4-1.4-0.6c-2.2-0.9,1.3,0.6-0.7-0.3c-1-0.4-1.9-0.9-2.9-1.3c-0.7-0.3-1.4-0.7-2.1-1.1
					C202.6,182.3,194.9,195.4,203.5,200.1L203.5,200.1z"/>
			</g>
			<g>
				<path class="st5" d="M140.5,229c21.5,11.9,46.6,19,70.6,23.5c54.1,10.1,109.6,3.5,159.4-19.9c2.4-1.1,4.8-2.3,7.1-3.5
					c8.7-4.4,1-17.5-7.6-13.1c-47.9,24.3-102.2,31.6-154.9,21.9c-17-3.1-33.6-7.8-49.7-14.1c-3.4-1.3-4.1-1.6-6.6-2.7
					c-1.9-0.8-3.8-1.7-5.7-2.6c-1.7-0.8-3.3-1.6-5-2.5C139.6,211.2,132,224.3,140.5,229L140.5,229z"/>
			</g>
			<g>
				<path class="st5" d="M140.5,274.4c21.5,11.9,46.6,19,70.6,23.5c54.1,10.1,109.6,3.5,159.4-19.9c2.4-1.1,4.8-2.3,7.1-3.5
					c8.7-4.4,1-17.5-7.6-13.1c-47.9,24.3-102.2,31.6-154.9,21.9c-17-3.1-33.6-7.8-49.7-14.1c-3.4-1.3-4.1-1.6-6.6-2.7
					c-1.9-0.8-3.8-1.7-5.7-2.6c-1.7-0.8-3.3-1.6-5-2.5C139.6,256.6,132,269.7,140.5,274.4L140.5,274.4z"/>
			</g>
			<g>
				<path class="st5" d="M167.3,325.9c17.2,9.3,37.1,14.8,56.1,18.2c43.5,7.7,87.9,1.6,127.4-18.2c8.7-4.4,1.1-17.4-7.6-13.1
					c-36.2,18.1-77.2,23.5-117,16.5c-12.9-2.3-25.6-5.9-37.9-10.5c-1-0.4-1.9-0.7-2.9-1.1c-0.4-0.2-0.9-0.4-1.3-0.5
					c-2.1-0.9,1.3,0.6-0.6-0.3c-1.6-0.7-3.2-1.4-4.8-2.2c-1.3-0.6-2.5-1.2-3.8-1.9C166.4,308.2,158.8,321.2,167.3,325.9L167.3,325.9
					z"/>
			</g>
		</g>
	</g>
	<path class="st6" d="M259.1,389.9C259.1,389.9,259.1,389.9,259.1,389.9c28.9,0,52-8.8,70.2-21.1
		c-181.8-27.1-129.5-232.7-129.5-232.7v0c-4.4,2.8-8.8,6.2-13.1,10.1c-31.5,29.3-45.4,46.1-69.5,48.3c0,0-8.8,38.8-8.8,65.9
		c0,0,13.9,19.8,22.7,36.6C139.8,313.7,174.2,389.9,259.1,389.9z"/>
</g>
</svg>
