<?xml version="1.0" encoding="utf-8"?>
<!-- Generator: Adobe Illustrator 24.2.3, SVG Export Plug-In . SVG Version: 6.00 Build 0)  -->
<svg version="1.1" id="Layer_1" xmlns="http://www.w3.org/2000/svg" xmlns:xlink="http://www.w3.org/1999/xlink" x="0px" y="0px"
	 viewBox="0 0 512 512" style="enable-background:new 0 0 512 512;" xml:space="preserve">
<style type="text/css">
	.st0{fill:#FCBD12;}
	.st1{fill:#A4DAEC;}
	.st2{fill:none;stroke:#FFFFFF;stroke-width:4;stroke-miterlimit:10;}
	.st3{fill:#FFFFFF;}
	.st4{fill:#D6D6D6;}
	.st5{fill:#E83C41;}
	.st6{opacity:0.1;fill:#FFFFFF;}
</style>
<circle class="st0" cx="256" cy="256.5" r="256"/>
<path class="st1" d="M392.2,149.5v213c0,16.4-13.3,29.7-29.7,29.7h-213c-16.4,0-29.7-13.3-29.7-29.7v-213
	c0-16.4,13.3-29.7,29.7-29.7h213C378.9,119.8,392.2,133.1,392.2,149.5z"/>
<path class="st2" d="M338.3,356.7H173.7c-9.9,0-17.9-8-17.9-17.9V174.2c0-9.9,8-17.9,17.9-17.9h164.6c9.9,0,17.9,8,17.9,17.9v164.6
	C356.2,348.7,348.2,356.7,338.3,356.7z"/>
<g>
	<g>
		<path class="st3" d="M197.7,216.2c-5.9,0-10.7,4.8-10.7,10.7c0,5.9,4.8,10.7,10.7,10.7c5.9,0,10.7-4.8,10.7-10.7
			C208.4,221,203.6,216.2,197.7,216.2L197.7,216.2z"/>
		<path class="st3" d="M208.4,315.3v-30.1c0-2.2,1.8-4,4-4l0,0c2.2,0,4-1.8,4-4v-25.3c0-5.9-4.8-10.7-10.7-10.7h-16
			c-5.9,0-10.7,4.8-10.7,10.7v25.3c0,2.2,1.8,4,4,4l0,0c2.2,0,4,1.8,4,4v30.1c0,3.2,2.6,5.9,5.9,5.9h9.6
			C205.8,321.1,208.4,318.5,208.4,315.3z"/>
	</g>
</g>
<g>
	<g>
		<path class="st3" d="M314.1,216.2c-5.9,0-10.7,4.8-10.7,10.7c0,5.9,4.8,10.7,10.7,10.7c5.9,0,10.7-4.8,10.7-10.7
			C324.8,221,320,216.2,314.1,216.2L314.1,216.2z"/>
		<path class="st3" d="M324.8,314.8v-29.7c0-2.2,1.8-4,4-4l0,0c2.2,0,4-1.8,4-4v-25.3c0-5.9-4.8-10.7-10.7-10.7h-16
			c-5.9,0-10.7,4.8-10.7,10.7v25.3c0,2.2,1.8,4,4,4l0,0c2.2,0,4,1.8,4,4v29.7c0,3.5,2.8,6.3,6.3,6.3h8.8
			C321.9,321.1,324.8,318.3,324.8,314.8z"/>
	</g>
</g>
<polygon class="st3" points="281.9,266.1 270.7,256.5 270.7,262.2 241.5,262.2 241.5,256.5 230.3,266.1 241.5,275.8 241.5,270 
	270.7,270 270.7,275.8 "/>
<g>
	<g>
		
			<ellipse transform="matrix(0.5679 -0.8231 0.8231 0.5679 -63.5983 301.8206)" class="st4" cx="255.7" cy="211.5" rx="14.2" ry="14.2"/>
		<path class="st4" d="M255.2,194l-0.1-0.5c-0.1-0.7,0.1-1.4,0.4-2c0.3-0.5,0.4-1,0.2-1.6c-0.2-0.9-1.1-1.6-2.1-1.6
			c-1.3,0-2.2,1.2-2,2.4c0.1,0.5,0.3,1,0.7,1.3c0.5,0.5,0.9,1.1,1,1.8l0.1,0.4c-0.1,0.2-0.2,0.4-0.3,0.6c-0.2,0.2-0.4,0.4-0.3,0.5
			c0,0.2,0.2,0.3,0.5,0.4c0.2,0.2,0.3,0.4,0.5,0.5l0.5,3.4l0,0l1.8-0.3l0,0l-0.5-3.4c0.1-0.2,0.2-0.4,0.3-0.7
			c0.2-0.2,0.3-0.4,0.3-0.5c0-0.2-0.2-0.3-0.5-0.4C255.5,194.3,255.4,194.2,255.2,194z"/>
		<path class="st4" d="M266.8,198.5l0.3-0.4c0.4-0.6,1.1-0.9,1.7-1.1c0.5-0.1,1-0.4,1.3-0.9c0.5-0.8,0.4-1.9-0.3-2.6
			c-0.9-0.9-2.4-0.8-3.1,0.2c-0.3,0.4-0.5,0.9-0.4,1.4c0,0.7-0.2,1.4-0.7,2l-0.3,0.3c-0.2,0.1-0.4,0.2-0.7,0.2
			c-0.3-0.1-0.5,0-0.6,0.1c-0.1,0.1-0.1,0.4,0,0.6c0,0.3-0.1,0.5-0.1,0.7l-2.1,2.7c0,0,0,0,0,0l1.4,1.1l0,0l2.1-2.7
			c0.2-0.1,0.4-0.2,0.7-0.3c0.3,0,0.5,0,0.6-0.1c0.1-0.1,0.1-0.4,0-0.6C266.8,199,266.8,198.8,266.8,198.5z"/>
		<path class="st4" d="M272.4,210.9l0.5,0c0.7-0.1,1.4,0.1,2,0.5c0.4,0.3,1,0.4,1.6,0.3c1-0.2,1.7-1,1.7-2c0-1.3-1.1-2.2-2.3-2.1
			c-0.5,0-1,0.3-1.3,0.6c-0.5,0.5-1.2,0.8-1.9,0.9l-0.4,0c-0.2-0.1-0.4-0.2-0.6-0.3c-0.2-0.2-0.3-0.4-0.5-0.4
			c-0.2,0-0.3,0.2-0.4,0.4c-0.2,0.2-0.4,0.3-0.6,0.4l-3.4,0.3c0,0,0,0,0,0l0.2,1.8l0,0l3.4-0.3c0.2,0.1,0.4,0.2,0.6,0.3
			c0.2,0.2,0.3,0.4,0.5,0.3c0.2,0,0.3-0.2,0.4-0.4C272.1,211.2,272.2,211.1,272.4,210.9z"/>
		<path class="st4" d="M267.3,223.5l0.4,0.3c0.5,0.5,0.8,1.1,1,1.8c0.1,0.5,0.4,1,0.8,1.4c0.8,0.6,1.9,0.5,2.6-0.1
			c0.9-0.9,0.9-2.3,0-3.1c-0.4-0.3-0.9-0.5-1.4-0.5c-0.7,0-1.4-0.3-1.9-0.8l-0.3-0.3c-0.1-0.2-0.1-0.4-0.2-0.7
			c0.1-0.3,0-0.5-0.1-0.6c-0.1-0.1-0.4-0.1-0.6,0c-0.3,0-0.5-0.1-0.7-0.1l-2.6-2.3l0,0l-1.2,1.4l0,0l2.6,2.3
			c0.1,0.2,0.1,0.4,0.2,0.7c-0.1,0.3,0,0.5,0.1,0.6c0.1,0.1,0.4,0.1,0.6,0C266.9,223.4,267.1,223.4,267.3,223.5z"/>
		<path class="st4" d="M254.7,228.3l0,0.5c0,0.7-0.2,1.4-0.6,1.9c-0.3,0.4-0.5,1-0.4,1.5c0.1,1,0.9,1.7,1.9,1.8
			c1.3,0.1,2.3-0.9,2.3-2.2c0-0.5-0.2-1-0.6-1.3c-0.5-0.5-0.7-1.2-0.8-1.9l0-0.4c0.1-0.2,0.2-0.4,0.3-0.6c0.2-0.1,0.4-0.3,0.4-0.5
			c0-0.2-0.2-0.3-0.4-0.5c-0.1-0.2-0.3-0.4-0.4-0.6l-0.1-3.5c0,0,0,0,0,0l-1.8,0.1l0,0l0.1,3.5c-0.1,0.2-0.2,0.4-0.4,0.6
			c-0.2,0.1-0.4,0.3-0.4,0.5c0,0.2,0.2,0.3,0.4,0.5C254.4,228,254.5,228.1,254.7,228.3z"/>
		<path class="st4" d="M242.4,222.5l-0.4,0.4c-0.5,0.5-1.2,0.8-1.9,0.9c-0.5,0.1-1,0.3-1.4,0.8c-0.6,0.8-0.6,1.9,0,2.6
			c0.8,1,2.2,1,3.1,0.2c0.4-0.4,0.6-0.8,0.6-1.3c0-0.7,0.4-1.4,0.9-1.9l0.3-0.3c0.2-0.1,0.4-0.1,0.7-0.2c0.3,0.1,0.5,0.1,0.6-0.1
			c0.1-0.1,0.1-0.4,0.1-0.6c0.1-0.3,0.1-0.4,0.2-0.7l2.4-2.5c0,0,0,0,0,0l-1.3-1.3l0,0l-2.4,2.5c-0.3,0.1-0.4,0.1-0.7,0.2
			c-0.3-0.1-0.5-0.1-0.6,0.1c-0.1,0.1-0.1,0.4-0.1,0.6C242.5,222.1,242.5,222.3,242.4,222.5z"/>
		<path class="st4" d="M238.3,209.6l-0.5,0c-0.7,0-1.4-0.3-1.9-0.8c-0.4-0.3-0.9-0.5-1.5-0.5c-1,0.1-1.8,0.8-1.9,1.8
			c-0.2,1.3,0.8,2.3,2,2.4c0.5,0,1-0.2,1.4-0.5c0.5-0.5,1.3-0.7,2-0.6l0.4,0c0.2,0.1,0.4,0.2,0.6,0.4c0.1,0.3,0.3,0.4,0.5,0.4
			c0.2,0,0.4-0.1,0.5-0.4c0.2-0.1,0.4-0.2,0.6-0.4l3.5,0.1l0,0l0-1.8v0l-3.5-0.1c-0.2-0.1-0.4-0.2-0.6-0.4c-0.1-0.2-0.3-0.4-0.5-0.4
			c-0.2,0-0.4,0.1-0.5,0.4C238.6,209.4,238.5,209.5,238.3,209.6z"/>
		<path class="st4" d="M244.5,198.3l-0.3-0.4c-0.5-0.5-0.7-1.2-0.7-1.9c0-0.5-0.2-1-0.7-1.4c-0.7-0.7-1.8-0.7-2.6-0.2
			c-1,0.7-1.2,2.2-0.3,3.1c0.3,0.4,0.8,0.6,1.3,0.7c0.7,0.1,1.3,0.5,1.8,1l0.3,0.3c0,0.2,0.1,0.4,0.1,0.7c-0.1,0.3-0.1,0.5,0,0.6
			c0.1,0.1,0.3,0.2,0.6,0.1c0.2,0.1,0.4,0.1,0.7,0.2l2.3,2.6c0,0,0,0,0,0l1.3-1.2l0,0l-2.3-2.6c0-0.3-0.1-0.5-0.1-0.7
			c0.1-0.3,0.1-0.5,0-0.6c-0.1-0.1-0.4-0.2-0.6-0.1C244.9,198.4,244.7,198.4,244.5,198.3z"/>
		<path class="st4" d="M260.4,196.1l0.1-0.3c0.2-0.4,0.5-0.8,0.9-1c0.3-0.2,0.6-0.5,0.7-0.8c0.2-0.6-0.1-1.3-0.7-1.7
			c-0.8-0.4-1.7-0.1-2,0.7c-0.1,0.3-0.1,0.7,0,1c0.2,0.5,0.1,1-0.1,1.4l-0.1,0.3c-0.1,0.1-0.2,0.2-0.4,0.3c-0.2,0-0.3,0.1-0.4,0.2
			c0,0.1,0,0.3,0.1,0.4c0,0.2,0,0.3,0.1,0.5l-0.9,2.2l0,0l1.1,0.5l0,0l0.9-2.2c0.1-0.1,0.3-0.2,0.4-0.3c0.2,0,0.3-0.1,0.4-0.2
			c0-0.1,0-0.3-0.1-0.4C260.5,196.4,260.4,196.2,260.4,196.1z"/>
		<path class="st4" d="M249.8,196.3l-0.1-0.3c-0.2-0.4-0.2-0.9-0.1-1.4c0.1-0.3,0.1-0.7-0.1-1.1c-0.3-0.6-1-0.9-1.7-0.7
			c-0.8,0.2-1.2,1.1-0.9,1.9c0.1,0.3,0.4,0.6,0.7,0.7c0.4,0.2,0.8,0.6,0.9,1l0.1,0.3c0,0.2,0,0.3-0.1,0.5c-0.1,0.1-0.2,0.3-0.1,0.4
			c0,0.1,0.2,0.2,0.4,0.2c0.1,0.1,0.3,0.2,0.4,0.3l0.9,2.2l0,0l1.1-0.5h0l-0.9-2.2c0-0.2,0-0.3,0.1-0.5c0.1-0.1,0.2-0.3,0.1-0.4
			c0-0.1-0.2-0.2-0.4-0.2C250.1,196.5,250,196.4,249.8,196.3z"/>
		<path class="st4" d="M269.8,203.7l0.3-0.2c0.4-0.2,0.9-0.3,1.4-0.3c0.4,0.1,0.7,0,1-0.3c0.5-0.4,0.7-1.1,0.4-1.7
			c-0.4-0.8-1.3-1.1-2-0.6c-0.3,0.2-0.5,0.5-0.6,0.8c-0.2,0.5-0.5,0.8-0.9,1.1l-0.3,0.2c-0.2,0-0.3,0-0.5,0
			c-0.2-0.1-0.3-0.1-0.4-0.1c-0.1,0.1-0.2,0.2-0.1,0.4c-0.1,0.2-0.1,0.3-0.2,0.4l-2,1.2l0,0l0.6,1l0,0l2-1.2c0.2,0,0.3,0,0.5,0
			c0.2,0.1,0.3,0.1,0.4,0.1c0.1-0.1,0.2-0.2,0.1-0.4C269.7,204,269.7,203.9,269.8,203.7z"/>
		<path class="st4" d="M270.5,216.7l0.3,0.1c0.5,0.1,0.8,0.5,1.1,0.9c0.2,0.3,0.5,0.5,0.9,0.6c0.6,0.1,1.3-0.2,1.6-0.8
			c0.4-0.8-0.1-1.7-0.9-1.9c-0.3-0.1-0.7-0.1-1,0c-0.4,0.2-0.9,0.2-1.4,0l-0.3-0.1c-0.1-0.1-0.2-0.2-0.3-0.4c0-0.2-0.1-0.3-0.2-0.4
			c-0.1,0-0.3,0-0.4,0.2c-0.2,0-0.3,0.1-0.5,0.1l-2.2-0.7c0,0,0,0,0,0l-0.4,1.2c0,0,0,0,0,0l2.2,0.7c0.1,0.1,0.2,0.2,0.3,0.4
			c0,0.2,0.1,0.3,0.2,0.4c0.1,0,0.3,0,0.4-0.2C270.2,216.7,270.3,216.7,270.5,216.7z"/>
		<path class="st4" d="M261.5,226.4l0.1,0.3c0.2,0.4,0.2,0.9,0.1,1.4c-0.1,0.3-0.1,0.7,0.1,1.1c0.3,0.6,1,0.9,1.7,0.7
			c0.8-0.3,1.2-1.2,0.9-1.9c-0.1-0.3-0.4-0.6-0.7-0.7c-0.4-0.2-0.8-0.6-1-1l-0.1-0.3c0-0.2,0-0.3,0.1-0.5c0.1-0.1,0.2-0.3,0.1-0.4
			c0-0.1-0.2-0.2-0.4-0.2c-0.1-0.1-0.3-0.2-0.4-0.3l-0.9-2.2l0,0l-1.1,0.5l0,0l0.9,2.2c0,0.2,0,0.3-0.1,0.5
			c-0.1,0.1-0.2,0.3-0.1,0.4c0.1,0.1,0.2,0.2,0.4,0.2C261.2,226.2,261.3,226.3,261.5,226.4z"/>
		<path class="st4" d="M248.7,225.6l-0.1,0.3c-0.2,0.4-0.6,0.8-1,1c-0.3,0.2-0.6,0.4-0.7,0.8c-0.2,0.6,0,1.3,0.6,1.7
			c0.7,0.5,1.7,0.2,2-0.6c0.2-0.3,0.2-0.7,0.1-1c-0.1-0.5-0.1-1,0.1-1.4l0.1-0.3c0.1-0.1,0.3-0.2,0.4-0.3c0.2,0,0.3-0.1,0.4-0.2
			c0.1-0.1,0-0.3-0.1-0.4c0-0.2,0-0.3-0.1-0.5l1-2.1l0,0l-1.1-0.5l0,0l-1,2.1c-0.1,0.1-0.3,0.2-0.4,0.3c-0.2,0-0.3,0.1-0.4,0.2
			c-0.1,0.1,0,0.3,0.1,0.4C248.7,225.3,248.7,225.4,248.7,225.6z"/>
		<path class="st4" d="M240.2,216.3l-0.3,0.1c-0.5,0.1-0.9,0.1-1.4-0.1c-0.3-0.1-0.7-0.2-1.1,0c-0.6,0.2-1,0.9-0.9,1.6
			c0.1,0.8,1,1.4,1.8,1.1c0.3-0.1,0.6-0.3,0.8-0.6c0.3-0.4,0.7-0.7,1.1-0.8l0.3-0.1c0.2,0,0.3,0.1,0.5,0.1c0.1,0.1,0.3,0.2,0.4,0.2
			c0.1,0,0.2-0.2,0.2-0.3c0.1-0.1,0.2-0.2,0.3-0.4l2.3-0.6l0,0l-0.3-1.2l0,0l-2.3,0.6c-0.2,0-0.3-0.1-0.5-0.1
			c-0.1-0.1-0.3-0.2-0.4-0.2c-0.1,0-0.2,0.2-0.2,0.4C240.4,216.1,240.3,216.2,240.2,216.3z"/>
		<path class="st4" d="M240.7,204l-0.3-0.1c-0.4-0.2-0.8-0.5-1-1c-0.2-0.3-0.4-0.6-0.8-0.7c-0.6-0.2-1.3,0.1-1.7,0.6
			c-0.4,0.7-0.1,1.7,0.7,2c0.3,0.1,0.7,0.2,1,0.1c0.5-0.1,1-0.1,1.4,0.1l0.3,0.1c0.1,0.1,0.2,0.2,0.3,0.4c0,0.2,0.1,0.3,0.2,0.4
			c0.1,0,0.3,0,0.4-0.1c0.2,0,0.3,0,0.5-0.1l2.2,0.9l0,0l0.5-1.1l0,0l-2.2-0.9c-0.1-0.1-0.2-0.3-0.3-0.4c0-0.2-0.1-0.3-0.2-0.4
			c-0.1-0.1-0.3,0-0.4,0.1C241,204,240.9,204,240.7,204z"/>
	</g>
	<g>
		
			<ellipse transform="matrix(0.5679 -0.8231 0.8231 0.5679 -63.5983 301.8206)" class="st3" cx="255.7" cy="211.5" rx="14.2" ry="14.2"/>
		<path class="st3" d="M255.2,194l-0.1-0.5c-0.1-0.7,0.1-1.4,0.4-2c0.3-0.5,0.4-1,0.2-1.6c-0.2-0.9-1.1-1.6-2.1-1.6
			c-1.3,0-2.2,1.2-2,2.4c0.1,0.5,0.3,1,0.7,1.3c0.5,0.5,0.9,1.1,1,1.8l0.1,0.4c-0.1,0.2-0.2,0.4-0.3,0.6c-0.2,0.2-0.4,0.4-0.3,0.5
			c0,0.2,0.2,0.3,0.5,0.4c0.2,0.2,0.3,0.4,0.5,0.5l0.5,3.4l0,0l1.8-0.3l0,0l-0.5-3.4c0.1-0.2,0.2-0.4,0.3-0.7
			c0.2-0.2,0.3-0.4,0.3-0.5c0-0.2-0.2-0.3-0.5-0.4C255.5,194.3,255.4,194.2,255.2,194z"/>
		<path class="st3" d="M266.8,198.5l0.3-0.4c0.4-0.6,1.1-0.9,1.7-1.1c0.5-0.1,1-0.4,1.3-0.9c0.5-0.8,0.4-1.9-0.3-2.6
			c-0.9-0.9-2.4-0.8-3.1,0.2c-0.3,0.4-0.5,0.9-0.4,1.4c0,0.7-0.2,1.4-0.7,2l-0.3,0.3c-0.2,0.1-0.4,0.2-0.7,0.2
			c-0.3-0.1-0.5,0-0.6,0.1c-0.1,0.1-0.1,0.4,0,0.6c0,0.3-0.1,0.5-0.1,0.7l-2.1,2.7c0,0,0,0,0,0l1.4,1.1l0,0l2.1-2.7
			c0.2-0.1,0.4-0.2,0.7-0.3c0.3,0,0.5,0,0.6-0.1c0.1-0.1,0.1-0.4,0-0.6C266.8,199,266.8,198.8,266.8,198.5z"/>
		<path class="st3" d="M272.4,210.9l0.5,0c0.7-0.1,1.4,0.1,2,0.5c0.4,0.3,1,0.4,1.6,0.3c1-0.2,1.7-1,1.7-2c0-1.3-1.1-2.2-2.3-2.1
			c-0.5,0-1,0.3-1.3,0.6c-0.5,0.5-1.2,0.8-1.9,0.9l-0.4,0c-0.2-0.1-0.4-0.2-0.6-0.3c-0.2-0.2-0.3-0.4-0.5-0.4
			c-0.2,0-0.3,0.2-0.4,0.4c-0.2,0.2-0.4,0.3-0.6,0.4l-3.4,0.3c0,0,0,0,0,0l0.2,1.8l0,0l3.4-0.3c0.2,0.1,0.4,0.2,0.6,0.3
			c0.2,0.2,0.3,0.4,0.5,0.3c0.2,0,0.3-0.2,0.4-0.4C272.1,211.2,272.2,211.1,272.4,210.9z"/>
		<path class="st3" d="M267.3,223.5l0.4,0.3c0.5,0.5,0.8,1.1,1,1.8c0.1,0.5,0.4,1,0.8,1.4c0.8,0.6,1.9,0.5,2.6-0.1
			c0.9-0.9,0.9-2.3,0-3.1c-0.4-0.3-0.9-0.5-1.4-0.5c-0.7,0-1.4-0.3-1.9-0.8l-0.3-0.3c-0.1-0.2-0.1-0.4-0.2-0.7
			c0.1-0.3,0-0.5-0.1-0.6c-0.1-0.1-0.4-0.1-0.6,0c-0.3,0-0.5-0.1-0.7-0.1l-2.6-2.3l0,0l-1.2,1.4l0,0l2.6,2.3
			c0.1,0.2,0.1,0.4,0.2,0.7c-0.1,0.3,0,0.5,0.1,0.6c0.1,0.1,0.4,0.1,0.6,0C266.9,223.4,267.1,223.4,267.3,223.5z"/>
		<path class="st3" d="M254.7,228.3l0,0.5c0,0.7-0.2,1.4-0.6,1.9c-0.3,0.4-0.5,1-0.4,1.5c0.1,1,0.9,1.7,1.9,1.8
			c1.3,0.1,2.3-0.9,2.3-2.2c0-0.5-0.2-1-0.6-1.3c-0.5-0.5-0.7-1.2-0.8-1.9l0-0.4c0.1-0.2,0.2-0.4,0.3-0.6c0.2-0.1,0.4-0.3,0.4-0.5
			c0-0.2-0.2-0.3-0.4-0.5c-0.1-0.2-0.3-0.4-0.4-0.6l-0.1-3.5c0,0,0,0,0,0l-1.8,0.1l0,0l0.1,3.5c-0.1,0.2-0.2,0.4-0.4,0.6
			c-0.2,0.1-0.4,0.3-0.4,0.5c0,0.2,0.2,0.3,0.4,0.5C254.4,228,254.5,228.1,254.7,228.3z"/>
		<path class="st3" d="M242.4,222.5l-0.4,0.4c-0.5,0.5-1.2,0.8-1.9,0.9c-0.5,0.1-1,0.3-1.4,0.8c-0.6,0.8-0.6,1.9,0,2.6
			c0.8,1,2.2,1,3.1,0.2c0.4-0.4,0.6-0.8,0.6-1.3c0-0.7,0.4-1.4,0.9-1.9l0.3-0.3c0.2-0.1,0.4-0.1,0.7-0.2c0.3,0.1,0.5,0.1,0.6-0.1
			c0.1-0.1,0.1-0.4,0.1-0.6c0.1-0.3,0.1-0.4,0.2-0.7l2.4-2.5c0,0,0,0,0,0l-1.3-1.3l0,0l-2.4,2.5c-0.3,0.1-0.4,0.1-0.7,0.2
			c-0.3-0.1-0.5-0.1-0.6,0.1c-0.1,0.1-0.1,0.4-0.1,0.6C242.5,222.1,242.5,222.3,242.4,222.5z"/>
		<path class="st3" d="M238.3,209.6l-0.5,0c-0.7,0-1.4-0.3-1.9-0.8c-0.4-0.3-0.9-0.5-1.5-0.5c-1,0.1-1.8,0.8-1.9,1.8
			c-0.2,1.3,0.8,2.3,2,2.4c0.5,0,1-0.2,1.4-0.5c0.5-0.5,1.3-0.7,2-0.6l0.4,0c0.2,0.1,0.4,0.2,0.6,0.4c0.1,0.3,0.3,0.4,0.5,0.4
			c0.2,0,0.4-0.1,0.5-0.4c0.2-0.1,0.4-0.2,0.6-0.4l3.5,0.1l0,0l0-1.8v0l-3.5-0.1c-0.2-0.1-0.4-0.2-0.6-0.4c-0.1-0.2-0.3-0.4-0.5-0.4
			c-0.2,0-0.4,0.1-0.5,0.4C238.6,209.4,238.5,209.5,238.3,209.6z"/>
		<path class="st3" d="M244.5,198.3l-0.3-0.4c-0.5-0.5-0.7-1.2-0.7-1.9c0-0.5-0.2-1-0.7-1.4c-0.7-0.7-1.8-0.7-2.6-0.2
			c-1,0.7-1.2,2.2-0.3,3.1c0.3,0.4,0.8,0.6,1.3,0.7c0.7,0.1,1.3,0.5,1.8,1l0.3,0.3c0,0.2,0.1,0.4,0.1,0.7c-0.1,0.3-0.1,0.5,0,0.6
			c0.1,0.1,0.3,0.2,0.6,0.1c0.2,0.1,0.4,0.1,0.7,0.2l2.3,2.6c0,0,0,0,0,0l1.3-1.2l0,0l-2.3-2.6c0-0.3-0.1-0.5-0.1-0.7
			c0.1-0.3,0.1-0.5,0-0.6c-0.1-0.1-0.4-0.2-0.6-0.1C244.9,198.4,244.7,198.4,244.5,198.3z"/>
		<path class="st3" d="M260.4,196.1l0.1-0.3c0.2-0.4,0.5-0.8,0.9-1c0.3-0.2,0.6-0.5,0.7-0.8c0.2-0.6-0.1-1.3-0.7-1.7
			c-0.8-0.4-1.7-0.1-2,0.7c-0.1,0.3-0.1,0.7,0,1c0.2,0.5,0.1,1-0.1,1.4l-0.1,0.3c-0.1,0.1-0.2,0.2-0.4,0.3c-0.2,0-0.3,0.1-0.4,0.2
			c0,0.1,0,0.3,0.1,0.4c0,0.2,0,0.3,0.1,0.5l-0.9,2.2l0,0l1.1,0.5l0,0l0.9-2.2c0.1-0.1,0.3-0.2,0.4-0.3c0.2,0,0.3-0.1,0.4-0.2
			c0-0.1,0-0.3-0.1-0.4C260.5,196.4,260.4,196.2,260.4,196.1z"/>
		<path class="st3" d="M249.8,196.3l-0.1-0.3c-0.2-0.4-0.2-0.9-0.1-1.4c0.1-0.3,0.1-0.7-0.1-1.1c-0.3-0.6-1-0.9-1.7-0.7
			c-0.8,0.2-1.2,1.1-0.9,1.9c0.1,0.3,0.4,0.6,0.7,0.7c0.4,0.2,0.8,0.6,0.9,1l0.1,0.3c0,0.2,0,0.3-0.1,0.5c-0.1,0.1-0.2,0.3-0.1,0.4
			c0,0.1,0.2,0.2,0.4,0.2c0.1,0.1,0.3,0.2,0.4,0.3l0.9,2.2l0,0l1.1-0.5h0l-0.9-2.2c0-0.2,0-0.3,0.1-0.5c0.1-0.1,0.2-0.3,0.1-0.4
			c0-0.1-0.2-0.2-0.4-0.2C250.1,196.5,250,196.4,249.8,196.3z"/>
		<path class="st3" d="M269.8,203.7l0.3-0.2c0.4-0.2,0.9-0.3,1.4-0.3c0.4,0.1,0.7,0,1-0.3c0.5-0.4,0.7-1.1,0.4-1.7
			c-0.4-0.8-1.3-1.1-2-0.6c-0.3,0.2-0.5,0.5-0.6,0.8c-0.2,0.5-0.5,0.8-0.9,1.1l-0.3,0.2c-0.2,0-0.3,0-0.5,0
			c-0.2-0.1-0.3-0.1-0.4-0.1c-0.1,0.1-0.2,0.2-0.1,0.4c-0.1,0.2-0.1,0.3-0.2,0.4l-2,1.2l0,0l0.6,1l0,0l2-1.2c0.2,0,0.3,0,0.5,0
			c0.2,0.1,0.3,0.1,0.4,0.1c0.1-0.1,0.2-0.2,0.1-0.4C269.7,204,269.7,203.9,269.8,203.7z"/>
		<path class="st3" d="M270.5,216.7l0.3,0.1c0.5,0.1,0.8,0.5,1.1,0.9c0.2,0.3,0.5,0.5,0.9,0.6c0.6,0.1,1.3-0.2,1.6-0.8
			c0.4-0.8-0.1-1.7-0.9-1.9c-0.3-0.1-0.7-0.1-1,0c-0.4,0.2-0.9,0.2-1.4,0l-0.3-0.1c-0.1-0.1-0.2-0.2-0.3-0.4c0-0.2-0.1-0.3-0.2-0.4
			c-0.1,0-0.3,0-0.4,0.2c-0.2,0-0.3,0.1-0.5,0.1l-2.2-0.7c0,0,0,0,0,0l-0.4,1.2c0,0,0,0,0,0l2.2,0.7c0.1,0.1,0.2,0.2,0.3,0.4
			c0,0.2,0.1,0.3,0.2,0.4c0.1,0,0.3,0,0.4-0.2C270.2,216.7,270.3,216.7,270.5,216.7z"/>
		<path class="st3" d="M261.5,226.4l0.1,0.3c0.2,0.4,0.2,0.9,0.1,1.4c-0.1,0.3-0.1,0.7,0.1,1.1c0.3,0.6,1,0.9,1.7,0.7
			c0.8-0.3,1.2-1.2,0.9-1.9c-0.1-0.3-0.4-0.6-0.7-0.7c-0.4-0.2-0.8-0.6-1-1l-0.1-0.3c0-0.2,0-0.3,0.1-0.5c0.1-0.1,0.2-0.3,0.1-0.4
			c0-0.1-0.2-0.2-0.4-0.2c-0.1-0.1-0.3-0.2-0.4-0.3l-0.9-2.2l0,0l-1.1,0.5l0,0l0.9,2.2c0,0.2,0,0.3-0.1,0.5
			c-0.1,0.1-0.2,0.3-0.1,0.4c0.1,0.1,0.2,0.2,0.4,0.2C261.2,226.2,261.3,226.3,261.5,226.4z"/>
		<path class="st3" d="M248.7,225.6l-0.1,0.3c-0.2,0.4-0.6,0.8-1,1c-0.3,0.2-0.6,0.4-0.7,0.8c-0.2,0.6,0,1.3,0.6,1.7
			c0.7,0.5,1.7,0.2,2-0.6c0.2-0.3,0.2-0.7,0.1-1c-0.1-0.5-0.1-1,0.1-1.4l0.1-0.3c0.1-0.1,0.3-0.2,0.4-0.3c0.2,0,0.3-0.1,0.4-0.2
			c0.1-0.1,0-0.3-0.1-0.4c0-0.2,0-0.3-0.1-0.5l1-2.1l0,0l-1.1-0.5l0,0l-1,2.1c-0.1,0.1-0.3,0.2-0.4,0.3c-0.2,0-0.3,0.1-0.4,0.2
			c-0.1,0.1,0,0.3,0.1,0.4C248.7,225.3,248.7,225.4,248.7,225.6z"/>
		<path class="st3" d="M240.2,216.3l-0.3,0.1c-0.5,0.1-0.9,0.1-1.4-0.1c-0.3-0.1-0.7-0.2-1.1,0c-0.6,0.2-1,0.9-0.9,1.6
			c0.1,0.8,1,1.4,1.8,1.1c0.3-0.1,0.6-0.3,0.8-0.6c0.3-0.4,0.7-0.7,1.1-0.8l0.3-0.1c0.2,0,0.3,0.1,0.5,0.1c0.1,0.1,0.3,0.2,0.4,0.2
			c0.1,0,0.2-0.2,0.2-0.3c0.1-0.1,0.2-0.2,0.3-0.4l2.3-0.6l0,0l-0.3-1.2l0,0l-2.3,0.6c-0.2,0-0.3-0.1-0.5-0.1
			c-0.1-0.1-0.3-0.2-0.4-0.2c-0.1,0-0.2,0.2-0.2,0.4C240.4,216.1,240.3,216.2,240.2,216.3z"/>
		<path class="st3" d="M240.7,204l-0.3-0.1c-0.4-0.2-0.8-0.5-1-1c-0.2-0.3-0.4-0.6-0.8-0.7c-0.6-0.2-1.3,0.1-1.7,0.6
			c-0.4,0.7-0.1,1.7,0.7,2c0.3,0.1,0.7,0.2,1,0.1c0.5-0.1,1-0.1,1.4,0.1l0.3,0.1c0.1,0.1,0.2,0.2,0.3,0.4c0,0.2,0.1,0.3,0.2,0.4
			c0.1,0,0.3,0,0.4-0.1c0.2,0,0.3,0,0.5-0.1l2.2,0.9l0,0l0.5-1.1l0,0l-2.2-0.9c-0.1-0.1-0.2-0.3-0.3-0.4c0-0.2-0.1-0.3-0.2-0.4
			c-0.1-0.1-0.3,0-0.4,0.1C241,204,240.9,204,240.7,204z"/>
	</g>
	<path class="st5" d="M264.8,210.2c0.8,5.1-2.7,9.9-7.8,10.6c-5.1,0.8-9.9-2.7-10.6-7.8c-0.8-5.1,2.7-9.9,7.8-10.6
		C259.2,201.6,264,205.1,264.8,210.2z"/>
	
		<rect x="253.8" y="200.5" transform="matrix(0.8046 0.5938 -0.5938 0.8046 175.5662 -110.4849)" class="st3" width="3.7" height="22.2"/>
</g>
<path class="st6" d="M176.8,178.6c-3.1,6.1-1.9,11.3-6.2,9.1c-4.3-2.2-4.3-6.8-1.2-12.9c3.1-6.1,9.1-9.3,13.4-7.1
	C187.1,169.8,179.9,172.5,176.8,178.6z"/>
</svg>
